<mxfile host="65bd71144e">
    <diagram id="j706QnFWbmHLbnGnobgl" name="第 1 页">
        <mxGraphModel dx="636" dy="347" grid="1" gridSize="10" guides="0" tooltips="1" connect="1" arrows="1" fold="1" page="1" pageScale="1" pageWidth="4681" pageHeight="3300" background="none" math="0" shadow="0">
            <root>
                <mxCell id="0"/>
                <object label="Main" id="1">
                    <mxCell style="locked=1;" parent="0"/>
                </object>
                <mxCell id="315" value="开始" style="ellipse;whiteSpace=wrap;html=1;sketch=0;fillColor=none;gradientDirection=west;fontColor=#ffffff;strokeColor=default;fillStyle=auto;gradientColor=none;" parent="1" vertex="1">
                    <mxGeometry x="1940" y="950" width="80" height="50" as="geometry"/>
                </mxCell>
                <mxCell id="353" style="edgeStyle=none;html=1;exitX=0.5;exitY=1;exitDx=0;exitDy=0;exitPerimeter=0;" parent="1" source="333" target="343" edge="1">
                    <mxGeometry relative="1" as="geometry"/>
                </mxCell>
                <mxCell id="333" value="登录&lt;br&gt;@ID&lt;br&gt;@Passwd;" style="shape=card;whiteSpace=wrap;html=1;sketch=0;fillStyle=auto;fillColor=default;gradientColor=none;gradientDirection=west;" parent="1" vertex="1">
                    <mxGeometry x="1900" y="1040" width="70" height="60" as="geometry"/>
                </mxCell>
                <mxCell id="341" value="结束" style="ellipse;whiteSpace=wrap;html=1;sketch=0;fillColor=none;gradientDirection=west;fontColor=#ffffff;strokeColor=#FFFFFF;fillStyle=auto;gradientColor=none;" parent="1" vertex="1">
                    <mxGeometry x="2020" y="1300" width="80" height="50" as="geometry"/>
                </mxCell>
                <mxCell id="349" style="edgeStyle=none;html=1;exitX=0.5;exitY=1;exitDx=0;exitDy=0;exitPerimeter=0;" parent="1" source="342" edge="1">
                    <mxGeometry relative="1" as="geometry">
                        <mxPoint x="2060" y="1300" as="targetPoint"/>
                    </mxGeometry>
                </mxCell>
                <mxCell id="342" value="退出;" style="shape=card;whiteSpace=wrap;html=1;sketch=0;fillStyle=auto;fillColor=default;gradientColor=none;gradientDirection=west;" parent="1" vertex="1">
                    <mxGeometry x="2030" y="1040" width="60" height="60" as="geometry"/>
                </mxCell>
                <mxCell id="351" style="edgeStyle=none;html=1;exitX=0;exitY=0.5;exitDx=0;exitDy=0;" parent="1" source="343" edge="1">
                    <mxGeometry relative="1" as="geometry">
                        <mxPoint x="1980" y="1010" as="targetPoint"/>
                        <Array as="points">
                            <mxPoint x="1870" y="1145"/>
                            <mxPoint x="1870" y="1010"/>
                        </Array>
                        <mxPoint x="1890" y="1160" as="sourcePoint"/>
                    </mxGeometry>
                </mxCell>
                <mxCell id="343" value="登录状态" style="rhombus;whiteSpace=wrap;html=1;sketch=0;fillStyle=auto;fillColor=default;gradientColor=none;gradientDirection=west;" parent="1" vertex="1">
                    <mxGeometry x="1898" y="1120" width="74" height="50" as="geometry"/>
                </mxCell>
                <mxCell id="344" value="" style="endArrow=none;html=1;" parent="1" edge="1">
                    <mxGeometry width="50" height="50" relative="1" as="geometry">
                        <mxPoint x="1930" y="1020" as="sourcePoint"/>
                        <mxPoint x="2060" y="1020" as="targetPoint"/>
                    </mxGeometry>
                </mxCell>
                <mxCell id="346" value="" style="endArrow=none;html=1;entryX=0.5;entryY=1;entryDx=0;entryDy=0;" parent="1" target="315" edge="1">
                    <mxGeometry width="50" height="50" relative="1" as="geometry">
                        <mxPoint x="1980" y="1020" as="sourcePoint"/>
                        <mxPoint x="2070" y="1030" as="targetPoint"/>
                    </mxGeometry>
                </mxCell>
                <mxCell id="347" value="" style="endArrow=classic;html=1;" parent="1" edge="1">
                    <mxGeometry width="50" height="50" relative="1" as="geometry">
                        <mxPoint x="1930" y="1020" as="sourcePoint"/>
                        <mxPoint x="1930" y="1040" as="targetPoint"/>
                    </mxGeometry>
                </mxCell>
                <mxCell id="348" value="" style="endArrow=classic;html=1;entryX=0.5;entryY=0;entryDx=0;entryDy=0;entryPerimeter=0;" parent="1" target="342" edge="1">
                    <mxGeometry width="50" height="50" relative="1" as="geometry">
                        <mxPoint x="2060" y="1020" as="sourcePoint"/>
                        <mxPoint x="1870" y="1050" as="targetPoint"/>
                    </mxGeometry>
                </mxCell>
                <mxCell id="352" value="False" style="text;html=1;align=center;verticalAlign=middle;resizable=0;points=[];autosize=1;strokeColor=none;fillColor=none;" parent="1" vertex="1">
                    <mxGeometry x="1870" y="1120" width="40" height="20" as="geometry"/>
                </mxCell>
                <mxCell id="356" value="管理员&lt;br&gt;OP = 1" style="rounded=0;whiteSpace=wrap;html=1;" parent="1" vertex="1">
                    <mxGeometry x="1880" y="1209" width="50" height="50" as="geometry"/>
                </mxCell>
                <mxCell id="357" value="普通用户&lt;br&gt;OP = 1" style="rounded=0;whiteSpace=wrap;html=1;" parent="1" vertex="1">
                    <mxGeometry x="1940" y="1209" width="50" height="50" as="geometry"/>
                </mxCell>
                <mxCell id="362" value="" style="endArrow=none;html=1;" parent="1" edge="1">
                    <mxGeometry width="50" height="50" relative="1" as="geometry">
                        <mxPoint x="1850" y="1190" as="sourcePoint"/>
                        <mxPoint x="2030" y="1190" as="targetPoint"/>
                    </mxGeometry>
                </mxCell>
                <mxCell id="365" value="" style="endArrow=classic;html=1;entryX=0;entryY=0;entryDx=30;entryDy=0;entryPerimeter=0;" parent="1" edge="1">
                    <mxGeometry width="50" height="50" relative="1" as="geometry">
                        <mxPoint x="1850" y="1190" as="sourcePoint"/>
                        <mxPoint x="1851" y="1209" as="targetPoint"/>
                    </mxGeometry>
                </mxCell>
                <mxCell id="367" value="" style="endArrow=classic;html=1;entryX=0.5;entryY=0;entryDx=0;entryDy=0;" parent="1" edge="1">
                    <mxGeometry width="50" height="50" relative="1" as="geometry">
                        <mxPoint x="1903" y="1190" as="sourcePoint"/>
                        <mxPoint x="1902.9999999999998" y="1209" as="targetPoint"/>
                    </mxGeometry>
                </mxCell>
                <mxCell id="368" value="" style="endArrow=classic;html=1;entryX=0.5;entryY=0;entryDx=0;entryDy=0;" parent="1" edge="1">
                    <mxGeometry width="50" height="50" relative="1" as="geometry">
                        <mxPoint x="1962" y="1190" as="sourcePoint"/>
                        <mxPoint x="1961.9999999999998" y="1209" as="targetPoint"/>
                    </mxGeometry>
                </mxCell>
                <mxCell id="369" value="" style="endArrow=classic;html=1;entryX=0.6;entryY=0.02;entryDx=0;entryDy=0;entryPerimeter=0;" parent="1" edge="1">
                    <mxGeometry width="50" height="50" relative="1" as="geometry">
                        <mxPoint x="2030" y="1190" as="sourcePoint"/>
                        <mxPoint x="2029.9999999999998" y="1210" as="targetPoint"/>
                    </mxGeometry>
                </mxCell>
                <mxCell id="372" value="True" style="text;html=1;align=center;verticalAlign=middle;resizable=0;points=[];autosize=1;strokeColor=none;fillColor=none;" parent="1" vertex="1">
                    <mxGeometry x="1930" y="1170" width="40" height="20" as="geometry"/>
                </mxCell>
                <mxCell id="373" value="" style="endArrow=none;html=1;" parent="1" edge="1">
                    <mxGeometry width="50" height="50" relative="1" as="geometry">
                        <mxPoint x="1960" y="1280" as="sourcePoint"/>
                        <mxPoint x="1880" y="1010" as="targetPoint"/>
                        <Array as="points">
                            <mxPoint x="1810" y="1280"/>
                            <mxPoint x="1810" y="1010"/>
                        </Array>
                    </mxGeometry>
                </mxCell>
                <mxCell id="375" value="" style="endArrow=none;html=1;" parent="1" edge="1">
                    <mxGeometry width="50" height="50" relative="1" as="geometry">
                        <mxPoint x="2060" y="1280" as="sourcePoint"/>
                        <mxPoint x="2020" y="1260" as="targetPoint"/>
                        <Array as="points">
                            <mxPoint x="2020" y="1280"/>
                        </Array>
                    </mxGeometry>
                </mxCell>
                <mxCell id="376" value="" style="endArrow=none;html=1;entryX=0.5;entryY=1;entryDx=0;entryDy=0;" parent="1" target="343" edge="1">
                    <mxGeometry width="50" height="50" relative="1" as="geometry">
                        <mxPoint x="1934" y="1190" as="sourcePoint"/>
                        <mxPoint x="1939" y="1170" as="targetPoint"/>
                    </mxGeometry>
                </mxCell>
                <mxCell id="377" value="" style="endArrow=none;html=1;entryX=0.5;entryY=1;entryDx=0;entryDy=0;" parent="1" edge="1">
                    <mxGeometry width="50" height="50" relative="1" as="geometry">
                        <mxPoint x="1960" y="1280" as="sourcePoint"/>
                        <mxPoint x="1960" y="1259.0000000000002" as="targetPoint"/>
                    </mxGeometry>
                </mxCell>
                <mxCell id="378" value="" style="endArrow=none;html=1;entryX=0.5;entryY=1;entryDx=0;entryDy=0;" parent="1" target="356" edge="1">
                    <mxGeometry width="50" height="50" relative="1" as="geometry">
                        <mxPoint x="1905" y="1280" as="sourcePoint"/>
                        <mxPoint x="1699.9999999999998" y="1220" as="targetPoint"/>
                    </mxGeometry>
                </mxCell>
                <mxCell id="379" value="" style="endArrow=none;html=1;entryX=0.5;entryY=1;entryDx=0;entryDy=0;" parent="1" edge="1">
                    <mxGeometry width="50" height="50" relative="1" as="geometry">
                        <mxPoint x="1841" y="1280" as="sourcePoint"/>
                        <mxPoint x="1841" y="1260" as="targetPoint"/>
                    </mxGeometry>
                </mxCell>
                <mxCell id="381" value="退出;" style="shape=card;whiteSpace=wrap;html=1;sketch=0;fillStyle=auto;fillColor=default;gradientColor=none;gradientDirection=west;" parent="1" vertex="1">
                    <mxGeometry x="2000" y="1210" width="50" height="50" as="geometry"/>
                </mxCell>
                <mxCell id="382" value="ROOT&lt;br&gt;OP = 1" style="rounded=0;whiteSpace=wrap;html=1;" parent="1" vertex="1">
                    <mxGeometry x="1820" y="1210" width="50" height="50" as="geometry"/>
                </mxCell>
                <object label="ROOT" id="35">
                    <mxCell style="" parent="0"/>
                </object>
                <mxCell id="272" value="结束" style="ellipse;whiteSpace=wrap;html=1;fillColor=none;strokeColor=default;fontColor=#ffffff;rounded=0;gradientDirection=west;sketch=0;fillStyle=auto;gradientColor=none;" parent="35" vertex="1">
                    <mxGeometry x="2430" y="1130" width="60" height="20" as="geometry"/>
                </mxCell>
                <mxCell id="274" value="" style="endArrow=none;html=1;strokeColor=default;fontSize=12;fillColor=none;fontColor=#ffffff;sketch=0;gradientDirection=west;fillStyle=auto;gradientColor=none;" parent="35" edge="1">
                    <mxGeometry width="50" height="50" relative="1" as="geometry">
                        <mxPoint x="2290" y="1010" as="sourcePoint"/>
                        <mxPoint x="2460" y="1010" as="targetPoint"/>
                    </mxGeometry>
                </mxCell>
                <mxCell id="275" value="" style="endArrow=classic;html=1;strokeColor=default;fontSize=12;fillColor=none;fontColor=#ffffff;sketch=0;gradientDirection=west;fillStyle=auto;gradientColor=none;" parent="35" edge="1">
                    <mxGeometry width="50" height="50" relative="1" as="geometry">
                        <mxPoint x="2220" y="1010" as="sourcePoint"/>
                        <mxPoint x="2220" y="1030" as="targetPoint"/>
                    </mxGeometry>
                </mxCell>
                <mxCell id="276" value="" style="endArrow=classic;html=1;entryX=0.59;entryY=-0.015;entryDx=0;entryDy=0;strokeColor=default;fontSize=12;fillColor=none;fontColor=#ffffff;sketch=0;gradientDirection=west;fillStyle=auto;gradientColor=none;entryPerimeter=0;" parent="35" edge="1" target="391">
                    <mxGeometry width="50" height="50" relative="1" as="geometry">
                        <mxPoint x="2380" y="1010" as="sourcePoint"/>
                        <mxPoint x="2410" y="1030" as="targetPoint"/>
                    </mxGeometry>
                </mxCell>
                <mxCell id="277" value="" style="endArrow=classic;html=1;strokeColor=default;fontSize=12;fillColor=none;fontColor=#ffffff;sketch=0;gradientDirection=west;fillStyle=auto;gradientColor=none;" parent="35" edge="1">
                    <mxGeometry width="50" height="50" relative="1" as="geometry">
                        <mxPoint x="2300" y="1010" as="sourcePoint"/>
                        <mxPoint x="2300" y="1030" as="targetPoint"/>
                    </mxGeometry>
                </mxCell>
                <mxCell id="278" value="" style="endArrow=none;html=1;entryX=0.5;entryY=1;entryDx=0;entryDy=0;strokeColor=default;fontSize=12;fillColor=none;fontColor=#ffffff;sketch=0;gradientDirection=west;fillStyle=auto;gradientColor=none;" parent="35" target="280" edge="1">
                    <mxGeometry width="50" height="50" relative="1" as="geometry">
                        <mxPoint x="2340" y="1010" as="sourcePoint"/>
                        <mxPoint x="2140" y="1060" as="targetPoint"/>
                    </mxGeometry>
                </mxCell>
                <mxCell id="280" value="Root用户&lt;br&gt;OP = 0" style="rounded=0;whiteSpace=wrap;html=1;fillColor=none;fontColor=#ffffff;strokeColor=default;sketch=0;gradientDirection=west;fillStyle=auto;gradientColor=none;" parent="35" vertex="1">
                    <mxGeometry x="2300" y="950" width="80" height="40" as="geometry"/>
                </mxCell>
                <mxCell id="282" value="" style="edgeStyle=none;html=1;strokeColor=default;fontSize=12;fillColor=none;fontColor=#ffffff;sketch=0;gradientDirection=west;fillStyle=auto;gradientColor=none;exitX=0.5;exitY=1;exitDx=0;exitDy=0;exitPerimeter=0;" parent="35" edge="1">
                    <mxGeometry relative="1" as="geometry">
                        <mxPoint x="2456" y="1110" as="sourcePoint"/>
                        <mxPoint x="2456" y="1131" as="targetPoint"/>
                    </mxGeometry>
                </mxCell>
                <mxCell id="385" value="&lt;span style=&quot;color: rgb(255 , 255 , 255)&quot;&gt;创建&lt;/span&gt;&lt;br style=&quot;color: rgb(255 , 255 , 255)&quot;&gt;&lt;span style=&quot;color: rgb(255 , 255 , 255)&quot;&gt;管理员&lt;/span&gt;&lt;br style=&quot;color: rgb(255 , 255 , 255)&quot;&gt;&lt;span style=&quot;color: rgb(255 , 255 , 255)&quot;&gt;@ID&lt;/span&gt;&lt;br style=&quot;color: rgb(255 , 255 , 255)&quot;&gt;&lt;span style=&quot;color: rgb(255 , 255 , 255)&quot;&gt;@Passwd;&lt;/span&gt;" style="shape=card;whiteSpace=wrap;html=1;sketch=0;fillStyle=auto;fillColor=default;gradientColor=none;gradientDirection=west;" parent="35" vertex="1">
                    <mxGeometry x="2260" y="1030" width="70" height="80" as="geometry"/>
                </mxCell>
                <mxCell id="387" value="&lt;span style=&quot;color: rgb(255 , 255 , 255)&quot;&gt;删除&lt;/span&gt;&lt;br style=&quot;color: rgb(255 , 255 , 255)&quot;&gt;&lt;span style=&quot;color: rgb(255 , 255 , 255)&quot;&gt;管理员&lt;/span&gt;&lt;br style=&quot;color: rgb(255 , 255 , 255)&quot;&gt;&lt;span style=&quot;color: rgb(255 , 255 , 255)&quot;&gt;@ID;&lt;/span&gt;" style="shape=card;whiteSpace=wrap;html=1;sketch=0;fillStyle=auto;fillColor=default;gradientColor=none;gradientDirection=west;" parent="35" vertex="1">
                    <mxGeometry x="2180" y="1030" width="70" height="80" as="geometry"/>
                </mxCell>
                <mxCell id="390" value="&lt;font color=&quot;#ffffff&quot;&gt;退出;&lt;/font&gt;" style="shape=card;whiteSpace=wrap;html=1;sketch=0;fillStyle=auto;fillColor=default;gradientColor=none;gradientDirection=west;" parent="35" vertex="1">
                    <mxGeometry x="2420" y="1030" width="70" height="80" as="geometry"/>
                </mxCell>
                <mxCell id="391" value="管理员用户&lt;br&gt;OP&amp;nbsp; = 1" style="rounded=0;whiteSpace=wrap;html=1;gradientDirection=west;fillColor=none;fontColor=#ffffff;strokeColor=default;sketch=0;fillStyle=auto;gradientColor=none;" parent="35" vertex="1">
                    <mxGeometry x="2340" y="1030" width="70" height="80" as="geometry"/>
                </mxCell>
                <mxCell id="393" value="" style="endArrow=none;html=1;strokeColor=default;" parent="35" edge="1">
                    <mxGeometry width="50" height="50" relative="1" as="geometry">
                        <mxPoint x="2295" y="1010" as="sourcePoint"/>
                        <mxPoint x="2375" y="1120" as="targetPoint"/>
                        <Array as="points">
                            <mxPoint x="2165" y="1010"/>
                            <mxPoint x="2165" y="1120"/>
                        </Array>
                    </mxGeometry>
                </mxCell>
                <mxCell id="395" value="" style="endArrow=none;html=1;strokeColor=default;entryX=0.5;entryY=1;entryDx=0;entryDy=0;entryPerimeter=0;" parent="35" target="385" edge="1">
                    <mxGeometry width="50" height="50" relative="1" as="geometry">
                        <mxPoint x="2295" y="1120" as="sourcePoint"/>
                        <mxPoint x="2280" y="1040" as="targetPoint"/>
                    </mxGeometry>
                </mxCell>
                <mxCell id="396" value="" style="endArrow=none;html=1;strokeColor=default;entryX=0.5;entryY=1;entryDx=0;entryDy=0;" parent="35" target="391" edge="1">
                    <mxGeometry width="50" height="50" relative="1" as="geometry">
                        <mxPoint x="2375" y="1120" as="sourcePoint"/>
                        <mxPoint x="2290" y="1050" as="targetPoint"/>
                    </mxGeometry>
                </mxCell>
                <mxCell id="397" value="" style="endArrow=none;html=1;strokeColor=default;exitX=0.5;exitY=1;exitDx=0;exitDy=0;exitPerimeter=0;" parent="35" source="387" edge="1">
                    <mxGeometry width="50" height="50" relative="1" as="geometry">
                        <mxPoint x="2250" y="1110" as="sourcePoint"/>
                        <mxPoint x="2215" y="1120" as="targetPoint"/>
                    </mxGeometry>
                </mxCell>
                <mxCell id="462" value="" style="endArrow=classic;html=1;entryX=0.579;entryY=0.011;entryDx=0;entryDy=0;strokeColor=default;fontSize=12;fillColor=none;fontColor=#ffffff;sketch=0;gradientDirection=west;fillStyle=auto;gradientColor=none;entryPerimeter=0;" edge="1" parent="35" target="390">
                    <mxGeometry width="50" height="50" relative="1" as="geometry">
                        <mxPoint x="2460" y="1010" as="sourcePoint"/>
                        <mxPoint x="2391.3" y="1038.8" as="targetPoint"/>
                    </mxGeometry>
                </mxCell>
                <object label="管理员" id="285">
                    <mxCell style="locked=1;" parent="0"/>
                </object>
                <mxCell id="291" value="" style="endArrow=none;html=1;fillColor=none;strokeColor=default;fontSize=12;fontColor=#ffffff;sketch=0;gradientDirection=west;fillStyle=auto;gradientColor=none;" parent="285" edge="1">
                    <mxGeometry width="50" height="50" relative="1" as="geometry">
                        <mxPoint x="1350" y="1030" as="sourcePoint"/>
                        <mxPoint x="1650" y="1030" as="targetPoint"/>
                    </mxGeometry>
                </mxCell>
                <mxCell id="295" value="" style="endArrow=none;html=1;entryX=0.5;entryY=1;entryDx=0;entryDy=0;fillColor=none;strokeColor=default;fontSize=12;fontColor=#ffffff;sketch=0;gradientDirection=west;fillStyle=auto;gradientColor=none;" parent="285" target="297" edge="1">
                    <mxGeometry width="50" height="50" relative="1" as="geometry">
                        <mxPoint x="1500" y="1030" as="sourcePoint"/>
                        <mxPoint x="1460" y="1080" as="targetPoint"/>
                    </mxGeometry>
                </mxCell>
                <mxCell id="297" value="管理员用户&lt;br&gt;OP = 1" style="rounded=0;whiteSpace=wrap;html=1;fillColor=none;fontColor=#ffffff;strokeColor=default;sketch=0;gradientDirection=west;fillStyle=auto;gradientColor=none;" parent="285" vertex="1">
                    <mxGeometry x="1460" y="960" width="80" height="40" as="geometry"/>
                </mxCell>
                <mxCell id="301" value="普通用户&lt;br&gt;OP&amp;nbsp; = 2" style="rounded=0;whiteSpace=wrap;html=1;gradientDirection=west;fillColor=none;fontColor=#ffffff;strokeColor=default;sketch=0;fillStyle=auto;gradientColor=none;" parent="285" vertex="1">
                    <mxGeometry x="1560" y="1140" width="70" height="70" as="geometry"/>
                </mxCell>
                <mxCell id="312" value="" style="ellipse;whiteSpace=wrap;html=1;sketch=0;fillColor=none;gradientColor=none;gradientDirection=west;opacity=0;strokeColor=default;fontColor=#ffffff;fillStyle=auto;" parent="285" vertex="1">
                    <mxGeometry x="1820" y="1170" width="120" height="80" as="geometry"/>
                </mxCell>
                <mxCell id="313" value="" style="ellipse;whiteSpace=wrap;html=1;sketch=0;fillColor=none;gradientColor=none;gradientDirection=west;opacity=0;strokeColor=default;fontColor=#ffffff;fillStyle=auto;" parent="285" vertex="1">
                    <mxGeometry x="1820" y="1170" width="120" height="80" as="geometry"/>
                </mxCell>
                <mxCell id="400" value="&lt;span style=&quot;color: rgb(255 , 255 , 255)&quot;&gt;删除&lt;/span&gt;&lt;br style=&quot;color: rgb(255 , 255 , 255)&quot;&gt;&lt;span style=&quot;color: rgb(255 , 255 , 255)&quot;&gt;数据库&lt;/span&gt;&lt;br style=&quot;color: rgb(255 , 255 , 255)&quot;&gt;&lt;span style=&quot;color: rgb(255 , 255 , 255)&quot;&gt;@DBName;&lt;/span&gt;" style="shape=card;whiteSpace=wrap;html=1;sketch=0;fillStyle=auto;fillColor=default;gradientColor=none;gradientDirection=west;" vertex="1" parent="285">
                    <mxGeometry x="1360" y="1140" width="80" height="70" as="geometry"/>
                </mxCell>
                <mxCell id="401" value="&lt;span style=&quot;font-family: helvetica; font-size: 12px; font-style: normal; font-weight: 400; letter-spacing: normal; text-align: center; text-indent: 0px; text-transform: none; word-spacing: 0px; background-color: rgb(42, 42, 42); color: rgb(255, 255, 255);&quot;&gt;删除&lt;/span&gt;&lt;br style=&quot;font-family: helvetica; font-size: 12px; font-style: normal; font-weight: 400; letter-spacing: normal; text-align: center; text-indent: 0px; text-transform: none; word-spacing: 0px; background-color: rgb(42, 42, 42); color: rgb(255, 255, 255);&quot;&gt;&lt;span style=&quot;font-family: helvetica; font-size: 12px; font-style: normal; font-weight: 400; letter-spacing: normal; text-align: center; text-indent: 0px; text-transform: none; word-spacing: 0px; background-color: rgb(42, 42, 42); color: rgb(255, 255, 255);&quot;&gt;普通用户&lt;/span&gt;&lt;br style=&quot;font-family: helvetica; font-size: 12px; font-style: normal; font-weight: 400; letter-spacing: normal; text-align: center; text-indent: 0px; text-transform: none; word-spacing: 0px; background-color: rgb(42, 42, 42); color: rgb(255, 255, 255);&quot;&gt;&lt;span style=&quot;font-family: helvetica; font-size: 12px; font-style: normal; font-weight: 400; letter-spacing: normal; text-align: center; text-indent: 0px; text-transform: none; word-spacing: 0px; background-color: rgb(42, 42, 42); color: rgb(255, 255, 255);&quot;&gt;@ID;&lt;/span&gt;" style="shape=card;whiteSpace=wrap;html=1;sketch=0;fillStyle=auto;fillColor=default;gradientColor=none;gradientDirection=west;" vertex="1" parent="285">
                    <mxGeometry x="1610" y="1050" width="80" height="70" as="geometry"/>
                </mxCell>
                <mxCell id="402" value="&lt;span style=&quot;color: rgb(255 , 255 , 255)&quot;&gt;创建&lt;/span&gt;&lt;br style=&quot;color: rgb(255 , 255 , 255)&quot;&gt;&lt;span style=&quot;color: rgb(255 , 255 , 255)&quot;&gt;数据库&lt;/span&gt;&lt;br style=&quot;color: rgb(255 , 255 , 255)&quot;&gt;&lt;span style=&quot;color: rgb(255 , 255 , 255)&quot;&gt;@DBName;&lt;/span&gt;" style="shape=card;whiteSpace=wrap;html=1;sketch=0;fillStyle=auto;fillColor=default;gradientColor=none;gradientDirection=west;" vertex="1" parent="285">
                    <mxGeometry x="1410" y="1050" width="80" height="70" as="geometry"/>
                </mxCell>
                <mxCell id="403" value="&lt;span style=&quot;color: rgb(255, 255, 255); font-family: helvetica; font-size: 12px; font-style: normal; font-weight: 400; letter-spacing: normal; text-align: center; text-indent: 0px; text-transform: none; word-spacing: 0px; background-color: rgb(42, 42, 42); display: inline; float: none;&quot;&gt;创建&lt;/span&gt;&lt;br style=&quot;color: rgb(255, 255, 255); font-family: helvetica; font-size: 12px; font-style: normal; font-weight: 400; letter-spacing: normal; text-align: center; text-indent: 0px; text-transform: none; word-spacing: 0px; background-color: rgb(42, 42, 42);&quot;&gt;&lt;span style=&quot;color: rgb(255, 255, 255); font-family: helvetica; font-size: 12px; font-style: normal; font-weight: 400; letter-spacing: normal; text-align: center; text-indent: 0px; text-transform: none; word-spacing: 0px; background-color: rgb(42, 42, 42); display: inline; float: none;&quot;&gt;普通用户&lt;/span&gt;&lt;br style=&quot;color: rgb(255, 255, 255); font-family: helvetica; font-size: 12px; font-style: normal; font-weight: 400; letter-spacing: normal; text-align: center; text-indent: 0px; text-transform: none; word-spacing: 0px; background-color: rgb(42, 42, 42);&quot;&gt;&lt;span style=&quot;color: rgb(255, 255, 255); font-family: helvetica; font-size: 12px; font-style: normal; font-weight: 400; letter-spacing: normal; text-align: center; text-indent: 0px; text-transform: none; word-spacing: 0px; background-color: rgb(42, 42, 42); display: inline; float: none;&quot;&gt;@ID&lt;/span&gt;&lt;br style=&quot;color: rgb(255, 255, 255); font-family: helvetica; font-size: 12px; font-style: normal; font-weight: 400; letter-spacing: normal; text-align: center; text-indent: 0px; text-transform: none; word-spacing: 0px; background-color: rgb(42, 42, 42);&quot;&gt;&lt;span style=&quot;color: rgb(255, 255, 255); font-family: helvetica; font-size: 12px; font-style: normal; font-weight: 400; letter-spacing: normal; text-align: center; text-indent: 0px; text-transform: none; word-spacing: 0px; background-color: rgb(42, 42, 42); display: inline; float: none;&quot;&gt;@Passwd;&lt;/span&gt;" style="shape=card;whiteSpace=wrap;html=1;sketch=0;fillStyle=auto;fillColor=default;gradientColor=none;gradientDirection=west;" vertex="1" parent="285">
                    <mxGeometry x="1510" y="1050" width="80" height="70" as="geometry"/>
                </mxCell>
                <mxCell id="429" style="edgeStyle=none;html=1;exitX=0;exitY=0;exitDx=0;exitDy=50;exitPerimeter=0;entryX=0.5;entryY=0;entryDx=0;entryDy=0;" edge="1" parent="285" source="414" target="428">
                    <mxGeometry relative="1" as="geometry">
                        <mxPoint x="1270" y="1100" as="targetPoint"/>
                    </mxGeometry>
                </mxCell>
                <mxCell id="414" value="&lt;font color=&quot;#ffffff&quot;&gt;退出;&lt;/font&gt;" style="shape=card;whiteSpace=wrap;html=1;sketch=0;fillStyle=auto;fillColor=default;gradientColor=none;gradientDirection=west;" vertex="1" parent="285">
                    <mxGeometry x="1310" y="1050" width="80" height="70" as="geometry"/>
                </mxCell>
                <mxCell id="422" value="" style="endArrow=classic;html=1;entryX=0.5;entryY=0;entryDx=0;entryDy=0;entryPerimeter=0;" edge="1" parent="285" target="414">
                    <mxGeometry width="50" height="50" relative="1" as="geometry">
                        <mxPoint x="1350" y="1030" as="sourcePoint"/>
                        <mxPoint x="1320" y="1050" as="targetPoint"/>
                    </mxGeometry>
                </mxCell>
                <mxCell id="423" value="" style="endArrow=classic;html=1;entryX=0.5;entryY=0;entryDx=0;entryDy=0;entryPerimeter=0;" edge="1" parent="285" target="400">
                    <mxGeometry width="50" height="50" relative="1" as="geometry">
                        <mxPoint x="1400" y="1030" as="sourcePoint"/>
                        <mxPoint x="1610" y="1080" as="targetPoint"/>
                    </mxGeometry>
                </mxCell>
                <mxCell id="424" value="" style="endArrow=classic;html=1;entryX=0.5;entryY=0;entryDx=0;entryDy=0;entryPerimeter=0;" edge="1" parent="285" target="402">
                    <mxGeometry width="50" height="50" relative="1" as="geometry">
                        <mxPoint x="1450" y="1030" as="sourcePoint"/>
                        <mxPoint x="1620" y="1090" as="targetPoint"/>
                    </mxGeometry>
                </mxCell>
                <mxCell id="425" value="" style="endArrow=classic;html=1;entryX=0.5;entryY=0;entryDx=0;entryDy=0;entryPerimeter=0;" edge="1" parent="285" target="403">
                    <mxGeometry width="50" height="50" relative="1" as="geometry">
                        <mxPoint x="1550" y="1030" as="sourcePoint"/>
                        <mxPoint x="1630" y="1100" as="targetPoint"/>
                    </mxGeometry>
                </mxCell>
                <mxCell id="426" value="" style="endArrow=classic;html=1;entryX=0.5;entryY=0;entryDx=0;entryDy=0;entryPerimeter=0;" edge="1" parent="285" target="401">
                    <mxGeometry width="50" height="50" relative="1" as="geometry">
                        <mxPoint x="1650" y="1030" as="sourcePoint"/>
                        <mxPoint x="1640" y="1110" as="targetPoint"/>
                    </mxGeometry>
                </mxCell>
                <mxCell id="427" value="" style="endArrow=classic;html=1;entryX=0.5;entryY=0;entryDx=0;entryDy=0;" edge="1" parent="285">
                    <mxGeometry width="50" height="50" relative="1" as="geometry">
                        <mxPoint x="1601" y="1030" as="sourcePoint"/>
                        <mxPoint x="1601" y="1140.0000000000002" as="targetPoint"/>
                    </mxGeometry>
                </mxCell>
                <mxCell id="428" value="结束" style="ellipse;whiteSpace=wrap;html=1;" vertex="1" parent="285">
                    <mxGeometry x="1270" y="1150" width="80" height="40" as="geometry"/>
                </mxCell>
                <mxCell id="434" value="&lt;font color=&quot;#ffffff&quot;&gt;选择&lt;/font&gt;&lt;br style=&quot;color: rgb(255 , 255 , 255)&quot;&gt;&lt;span style=&quot;color: rgb(255 , 255 , 255)&quot;&gt;数据库&lt;/span&gt;&lt;br style=&quot;color: rgb(255 , 255 , 255)&quot;&gt;&lt;span style=&quot;color: rgb(255 , 255 , 255)&quot;&gt;@DBName;&lt;/span&gt;" style="shape=card;whiteSpace=wrap;html=1;sketch=0;fillStyle=auto;fillColor=default;gradientColor=none;gradientDirection=west;" vertex="1" parent="285">
                    <mxGeometry x="1450" y="1140" width="80" height="70" as="geometry"/>
                </mxCell>
                <mxCell id="436" value="" style="endArrow=classic;html=1;entryX=0.589;entryY=-0.03;entryDx=0;entryDy=0;entryPerimeter=0;" edge="1" parent="285" target="434">
                    <mxGeometry width="50" height="50" relative="1" as="geometry">
                        <mxPoint x="1500" y="1030" as="sourcePoint"/>
                        <mxPoint x="1460" y="1060.0000000000002" as="targetPoint"/>
                    </mxGeometry>
                </mxCell>
                <mxCell id="437" value="&lt;font color=&quot;#ffffff&quot;&gt;创建&lt;/font&gt;&lt;br style=&quot;color: rgb(255 , 255 , 255)&quot;&gt;&lt;font color=&quot;#ffffff&quot;&gt;表&lt;/font&gt;&lt;br style=&quot;color: rgb(255 , 255 , 255)&quot;&gt;&lt;span style=&quot;color: rgb(255 , 255 , 255)&quot;&gt;@TBName;&lt;/span&gt;" style="shape=card;whiteSpace=wrap;html=1;sketch=0;fillStyle=auto;fillColor=default;gradientColor=none;gradientDirection=west;" vertex="1" parent="285">
                    <mxGeometry x="1370" y="1250" width="80" height="70" as="geometry"/>
                </mxCell>
                <mxCell id="438" value="" style="endArrow=none;html=1;" edge="1" parent="285">
                    <mxGeometry width="50" height="50" relative="1" as="geometry">
                        <mxPoint x="1260" y="1220" as="sourcePoint"/>
                        <mxPoint x="1500" y="1010" as="targetPoint"/>
                        <Array as="points">
                            <mxPoint x="1260" y="1010"/>
                        </Array>
                    </mxGeometry>
                </mxCell>
                <mxCell id="439" value="" style="endArrow=none;html=1;entryX=0.5;entryY=1;entryDx=0;entryDy=0;" edge="1" parent="285" target="301">
                    <mxGeometry width="50" height="50" relative="1" as="geometry">
                        <mxPoint x="1500" y="1010" as="sourcePoint"/>
                        <mxPoint x="1600" y="1190" as="targetPoint"/>
                        <Array as="points">
                            <mxPoint x="1740" y="1010"/>
                            <mxPoint x="1740" y="1220"/>
                            <mxPoint x="1595" y="1220"/>
                        </Array>
                    </mxGeometry>
                </mxCell>
                <mxCell id="440" value="" style="endArrow=none;html=1;exitX=0.5;exitY=1;exitDx=0;exitDy=0;exitPerimeter=0;" edge="1" parent="285" source="400">
                    <mxGeometry width="50" height="50" relative="1" as="geometry">
                        <mxPoint x="1560" y="1250" as="sourcePoint"/>
                        <mxPoint x="1260" y="1220" as="targetPoint"/>
                        <Array as="points">
                            <mxPoint x="1400" y="1220"/>
                        </Array>
                    </mxGeometry>
                </mxCell>
                <mxCell id="443" value="&lt;font color=&quot;#ffffff&quot;&gt;删除&lt;/font&gt;&lt;br style=&quot;color: rgb(255 , 255 , 255)&quot;&gt;&lt;font color=&quot;#ffffff&quot;&gt;表&lt;/font&gt;&lt;br style=&quot;color: rgb(255 , 255 , 255)&quot;&gt;&lt;span style=&quot;color: rgb(255 , 255 , 255)&quot;&gt;@TBName;&lt;/span&gt;" style="shape=card;whiteSpace=wrap;html=1;sketch=0;fillStyle=auto;fillColor=default;gradientColor=none;gradientDirection=west;" vertex="1" parent="285">
                    <mxGeometry x="1550" y="1250" width="80" height="70" as="geometry"/>
                </mxCell>
                <mxCell id="444" value="" style="endArrow=none;html=1;" edge="1" parent="285">
                    <mxGeometry width="50" height="50" relative="1" as="geometry">
                        <mxPoint x="1410" y="1340" as="sourcePoint"/>
                        <mxPoint x="1601" y="1340" as="targetPoint"/>
                    </mxGeometry>
                </mxCell>
                <mxCell id="445" value="" style="endArrow=none;html=1;" edge="1" parent="285">
                    <mxGeometry width="50" height="50" relative="1" as="geometry">
                        <mxPoint x="1410" y="1230" as="sourcePoint"/>
                        <mxPoint x="1600" y="1230" as="targetPoint"/>
                    </mxGeometry>
                </mxCell>
                <mxCell id="446" value="" style="endArrow=none;html=1;entryX=0.5;entryY=1;entryDx=0;entryDy=0;entryPerimeter=0;" edge="1" parent="285" target="437">
                    <mxGeometry width="50" height="50" relative="1" as="geometry">
                        <mxPoint x="1410" y="1340" as="sourcePoint"/>
                        <mxPoint x="1730" y="1250" as="targetPoint"/>
                    </mxGeometry>
                </mxCell>
                <mxCell id="447" value="" style="endArrow=none;html=1;entryX=0.634;entryY=1.036;entryDx=0;entryDy=0;entryPerimeter=0;" edge="1" parent="285" target="443">
                    <mxGeometry width="50" height="50" relative="1" as="geometry">
                        <mxPoint x="1601" y="1340" as="sourcePoint"/>
                        <mxPoint x="1740" y="1260" as="targetPoint"/>
                    </mxGeometry>
                </mxCell>
                <mxCell id="448" value="" style="endArrow=none;html=1;" edge="1" parent="285">
                    <mxGeometry width="50" height="50" relative="1" as="geometry">
                        <mxPoint x="1500" y="1340" as="sourcePoint"/>
                        <mxPoint x="1740" y="1170" as="targetPoint"/>
                        <Array as="points">
                            <mxPoint x="1500" y="1360"/>
                            <mxPoint x="1740" y="1360"/>
                        </Array>
                    </mxGeometry>
                </mxCell>
                <mxCell id="449" value="" style="endArrow=none;html=1;exitX=0.5;exitY=1;exitDx=0;exitDy=0;exitPerimeter=0;" edge="1" parent="285" source="434">
                    <mxGeometry width="50" height="50" relative="1" as="geometry">
                        <mxPoint x="1710" y="1330" as="sourcePoint"/>
                        <mxPoint x="1490" y="1230" as="targetPoint"/>
                    </mxGeometry>
                </mxCell>
                <mxCell id="450" value="" style="endArrow=classic;html=1;entryX=0.618;entryY=-0.007;entryDx=0;entryDy=0;entryPerimeter=0;" edge="1" parent="285" target="443">
                    <mxGeometry width="50" height="50" relative="1" as="geometry">
                        <mxPoint x="1599" y="1230" as="sourcePoint"/>
                        <mxPoint x="1550" y="1250" as="targetPoint"/>
                    </mxGeometry>
                </mxCell>
                <mxCell id="451" value="" style="endArrow=classic;html=1;entryX=0.5;entryY=0;entryDx=0;entryDy=0;entryPerimeter=0;" edge="1" parent="285" target="437">
                    <mxGeometry width="50" height="50" relative="1" as="geometry">
                        <mxPoint x="1410" y="1230" as="sourcePoint"/>
                        <mxPoint x="1720" y="1240" as="targetPoint"/>
                    </mxGeometry>
                </mxCell>
                <mxCell id="454" value="&lt;font color=&quot;#ffffff&quot;&gt;重命名&lt;/font&gt;&lt;br style=&quot;color: rgb(255 , 255 , 255)&quot;&gt;&lt;span style=&quot;color: rgb(255 , 255 , 255)&quot;&gt;数据库&lt;/span&gt;&lt;br style=&quot;color: rgb(255 , 255 , 255)&quot;&gt;&lt;span style=&quot;color: rgb(255 , 255 , 255)&quot;&gt;@DBName;&lt;/span&gt;" style="shape=card;whiteSpace=wrap;html=1;sketch=0;fillStyle=auto;fillColor=default;gradientColor=none;gradientDirection=west;" vertex="1" parent="285">
                    <mxGeometry x="1650" y="1140" width="80" height="70" as="geometry"/>
                </mxCell>
                <mxCell id="455" value="" style="endArrow=none;html=1;entryX=0.5;entryY=1;entryDx=0;entryDy=0;entryPerimeter=0;" edge="1" parent="285" target="454">
                    <mxGeometry width="50" height="50" relative="1" as="geometry">
                        <mxPoint x="1690" y="1220" as="sourcePoint"/>
                        <mxPoint x="1589.9999999999998" y="1270" as="targetPoint"/>
                        <Array as="points"/>
                    </mxGeometry>
                </mxCell>
                <mxCell id="456" value="" style="endArrow=classic;html=1;entryX=0.622;entryY=-0.03;entryDx=0;entryDy=0;entryPerimeter=0;" edge="1" parent="285" target="454">
                    <mxGeometry width="50" height="50" relative="1" as="geometry">
                        <mxPoint x="1650" y="1030" as="sourcePoint"/>
                        <mxPoint x="1660" y="1060" as="targetPoint"/>
                        <Array as="points">
                            <mxPoint x="1700" y="1030"/>
                        </Array>
                    </mxGeometry>
                </mxCell>
                <mxCell id="457" value="&lt;font color=&quot;#ffffff&quot;&gt;重命名&lt;/font&gt;&lt;br style=&quot;color: rgb(255 , 255 , 255)&quot;&gt;&lt;font color=&quot;#ffffff&quot;&gt;表&lt;/font&gt;&lt;br style=&quot;color: rgb(255 , 255 , 255)&quot;&gt;&lt;span style=&quot;color: rgb(255 , 255 , 255)&quot;&gt;@TBName;&lt;/span&gt;" style="shape=card;whiteSpace=wrap;html=1;sketch=0;fillStyle=auto;fillColor=default;gradientColor=none;gradientDirection=west;" vertex="1" parent="285">
                    <mxGeometry x="1460" y="1250" width="80" height="70" as="geometry"/>
                </mxCell>
                <object label="普通用户" id="338">
                    <mxCell style="" parent="0"/>
                </object>
                <mxCell id="411" value="&lt;font color=&quot;#ffffff&quot; face=&quot;helvetica&quot;&gt;显示&lt;br&gt;数据库&lt;br&gt;@DBName;&lt;br&gt;&lt;/font&gt;" style="shape=card;whiteSpace=wrap;html=1;sketch=0;fillStyle=auto;fillColor=default;gradientColor=none;gradientDirection=west;" vertex="1" parent="338">
                    <mxGeometry x="1730" y="1480" width="80" height="70" as="geometry"/>
                </mxCell>
                <mxCell id="413" value="&lt;span style=&quot;color: rgb(255 , 255 , 255) ; font-family: &amp;#34;helvetica&amp;#34; ; font-size: 12px ; font-style: normal ; font-weight: 400 ; letter-spacing: normal ; text-align: center ; text-indent: 0px ; text-transform: none ; word-spacing: 0px ; background-color: rgb(42 , 42 , 42) ; display: inline ; float: none&quot;&gt;选择&lt;/span&gt;&lt;br style=&quot;color: rgb(255 , 255 , 255) ; font-family: &amp;#34;helvetica&amp;#34; ; font-size: 12px ; font-style: normal ; font-weight: 400 ; letter-spacing: normal ; text-align: center ; text-indent: 0px ; text-transform: none ; word-spacing: 0px ; background-color: rgb(42 , 42 , 42)&quot;&gt;&lt;font color=&quot;#ffffff&quot; face=&quot;helvetica&quot;&gt;表&lt;/font&gt;&lt;br style=&quot;color: rgb(255 , 255 , 255) ; font-family: &amp;#34;helvetica&amp;#34; ; font-size: 12px ; font-style: normal ; font-weight: 400 ; letter-spacing: normal ; text-align: center ; text-indent: 0px ; text-transform: none ; word-spacing: 0px ; background-color: rgb(42 , 42 , 42)&quot;&gt;&lt;span style=&quot;color: rgb(255 , 255 , 255) ; font-family: &amp;#34;helvetica&amp;#34; ; font-size: 12px ; font-style: normal ; font-weight: 400 ; letter-spacing: normal ; text-align: center ; text-indent: 0px ; text-transform: none ; word-spacing: 0px ; background-color: rgb(42 , 42 , 42) ; display: inline ; float: none&quot;&gt;@TBName;&lt;/span&gt;" style="shape=card;whiteSpace=wrap;html=1;sketch=0;fillStyle=auto;fillColor=default;gradientColor=none;gradientDirection=west;" vertex="1" parent="338">
                    <mxGeometry x="1640" y="1570" width="80" height="70" as="geometry"/>
                </mxCell>
                <mxCell id="432" value="普通用户&lt;br&gt;OP = 2" style="rounded=0;whiteSpace=wrap;html=1;fillColor=none;fontColor=#ffffff;strokeColor=default;sketch=0;gradientDirection=west;fillStyle=auto;gradientColor=none;" vertex="1" parent="338">
                    <mxGeometry x="1830" y="1410" width="80" height="40" as="geometry"/>
                </mxCell>
                <mxCell id="452" value="&lt;font color=&quot;#ffffff&quot;&gt;选择&lt;/font&gt;&lt;br style=&quot;color: rgb(255 , 255 , 255)&quot;&gt;&lt;span style=&quot;color: rgb(255 , 255 , 255)&quot;&gt;数据库&lt;/span&gt;&lt;br style=&quot;color: rgb(255 , 255 , 255)&quot;&gt;&lt;span style=&quot;color: rgb(255 , 255 , 255)&quot;&gt;@DBName;&lt;/span&gt;" style="shape=card;whiteSpace=wrap;html=1;sketch=0;fillStyle=auto;fillColor=default;gradientColor=none;gradientDirection=west;" vertex="1" parent="338">
                    <mxGeometry x="1640" y="1480" width="80" height="70" as="geometry"/>
                </mxCell>
                <mxCell id="459" value="&lt;font color=&quot;#ffffff&quot; face=&quot;helvetica&quot;&gt;显示&lt;br&gt;数据库&lt;br&gt;@DBName;&lt;br&gt;&lt;/font&gt;" style="shape=card;whiteSpace=wrap;html=1;sketch=0;fillStyle=auto;fillColor=default;gradientColor=none;gradientDirection=west;" vertex="1" parent="338">
                    <mxGeometry x="1820" y="1480" width="80" height="70" as="geometry"/>
                </mxCell>
            </root>
        </mxGraphModel>
    </diagram>
</mxfile>